<svg xmlns="http://www.w3.org/2000/svg" viewBox="0 0 48 47.96"><defs><style>.cls-1{fill:#37488a;}</style></defs><title>Services</title><g id="Layer_2" data-name="Layer 2"><g id="Layer_1-2" data-name="Layer 1"><path class="cls-1" d="M8.85,26.52a2.53,2.53,0,1,0,1,4.86,2.53,2.53,0,0,0-1-4.87Zm0,10.11a2.53,2.53,0,1,0,2.52,2.53,2.54,2.54,0,0,0-2.52-2.53Zm0-20.21A2.53,2.53,0,1,0,11.37,19a2.54,2.54,0,0,0-2.52-2.53ZM1.26,17.66a1.27,1.27,0,1,0,1.27,1.27,1.27,1.27,0,0,0-1.27-1.27ZM8.86,6.3a2.53,2.53,0,1,0,2.53,2.52A2.53,2.53,0,0,0,8.86,6.3ZM46.75,20.19A1.25,1.25,0,1,0,45.51,19,1.25,1.25,0,0,0,46.75,20.19ZM29.07,11.35a2.53,2.53,0,1,0-2.53-2.53,2.53,2.53,0,0,0,2.53,2.53Zm0-8.84a1.24,1.24,0,0,0,1.24-1.25,1.25,1.25,0,1,0-2.49,0,1.26,1.26,0,0,0,.35.9,1.27,1.27,0,0,0,.9.38ZM1.26,27.79a1.26,1.26,0,1,0,1.27,1.26,1.26,1.26,0,0,0-1.27-1.26ZM19,45.47a1.25,1.25,0,1,0,1.24,1.25,1.18,1.18,0,0,0-.36-.89,1.22,1.22,0,0,0-.88-.37ZM19,2.53A1.26,1.26,0,0,0,19,0a1.26,1.26,0,0,0-1.27,1.26,1.28,1.28,0,0,0,.39.88,1.24,1.24,0,0,0,.9.35Zm0,8.83a2.53,2.53,0,1,0-2.53-2.52A2.54,2.54,0,0,0,19,11.35Zm0,13.9a3.76,3.76,0,1,0,2.68,1.09A3.75,3.75,0,0,0,19,25.25Zm20.21,1.25A2.53,2.53,0,1,0,41.7,29a2.53,2.53,0,0,0-2.52-2.52Zm0,10.1a2.53,2.53,0,1,0,2.52,2.53A2.53,2.53,0,0,0,39.18,36.61Zm0-20.21a2.53,2.53,0,1,0,2.52,2.53A2.53,2.53,0,0,0,39.18,16.4Zm0-10.1A2.53,2.53,0,1,0,41.7,8.82,2.52,2.52,0,0,0,39.18,6.3Zm7.57,21.49A1.24,1.24,0,0,0,45.51,29a1.25,1.25,0,0,0,2.49,0,1.21,1.21,0,0,0-.36-.89A1.22,1.22,0,0,0,46.75,27.79ZM29.07,36.61a2.53,2.53,0,1,0,2.53,2.53A2.55,2.55,0,0,0,29.07,36.61Zm0,8.85a1.25,1.25,0,1,0,1.24,1.24A1.24,1.24,0,0,0,29.07,45.46ZM19,15.14a3.79,3.79,0,1,0,2.68,1.11A3.79,3.79,0,0,0,19,15.14Zm0,21.47a2.53,2.53,0,1,0,2.52,2.53A2.53,2.53,0,0,0,19,36.61Zm10.1-11.36a3.77,3.77,0,1,0,2.68,1.1A3.75,3.75,0,0,0,29.07,25.25Zm0-10.11a3.79,3.79,0,1,0,2.68,1.11,3.79,3.79,0,0,0-2.68-1.11Z"/></g></g></svg>